<svg width="26" height="26" viewBox="0 0 26 26" fill="none" xmlns="http://www.w3.org/2000/svg">
<path d="M18.8186 20.1359L18.109 19.4252C18.0152 19.3321 17.9043 19.2855 17.7765 19.2855C17.6479 19.2855 17.537 19.3321 17.4439 19.4252C17.3507 19.5177 17.3041 19.6271 17.3041 19.7535C17.3041 19.8799 17.3507 19.9896 17.4439 20.0828L18.3755 21.0145C18.5099 21.1495 18.6612 21.2171 18.8295 21.2171C18.9977 21.2171 19.149 21.1495 19.2834 21.0145L21.5562 18.7752C21.6494 18.6821 21.6996 18.5748 21.7068 18.4535C21.714 18.3314 21.6638 18.217 21.5562 18.1101C21.463 18.0169 21.3489 17.9703 21.2139 17.9703C21.0788 17.9703 20.9643 18.0173 20.8705 18.1111L18.8186 20.1359ZM7.87587 9.45748H18.1264C18.2802 9.45748 18.4088 9.40584 18.512 9.30256C18.6153 9.19929 18.6673 9.07037 18.668 8.91581C18.668 8.74753 18.616 8.61537 18.512 8.51931C18.4088 8.42254 18.2802 8.37415 18.1264 8.37415H7.87479C7.72096 8.37415 7.59204 8.42579 7.48804 8.52906C7.38404 8.63234 7.3324 8.76126 7.33312 8.91581C7.33385 9.07037 7.38549 9.19929 7.48804 9.30256C7.5906 9.40584 7.7206 9.45748 7.87587 9.45748ZM19.5 23.959C18.2932 23.959 17.2695 23.5383 16.4288 22.6969C15.5874 21.8562 15.1667 20.8325 15.1667 19.6256C15.1667 18.4188 15.5874 17.3947 16.4288 16.5533C17.2702 15.7119 18.2939 15.2916 19.5 15.2923C20.7062 15.293 21.7303 15.7134 22.5724 16.5533C23.4145 17.3933 23.8348 18.4174 23.8334 19.6256C23.8334 20.8318 23.413 21.8555 22.5724 22.6969C21.7303 23.5383 20.7062 23.959 19.5 23.959ZM4.33337 6.08398C4.33337 5.59865 4.50382 5.18554 4.84471 4.84465C5.1856 4.50376 5.59871 4.33331 6.08404 4.33331H19.9171C20.401 4.33331 20.8138 4.50376 21.1554 4.84465C21.4963 5.18554 21.6667 5.59865 21.6667 6.08398V11.8441C21.6667 11.9979 21.6151 12.1268 21.5118 12.2308C21.4085 12.3348 21.2796 12.3865 21.125 12.3857C20.9705 12.385 20.8416 12.3334 20.7383 12.2308C20.635 12.1283 20.5834 11.9993 20.5834 11.8441V6.08398C20.5834 5.91715 20.514 5.76404 20.3754 5.62465C20.2367 5.48526 20.0836 5.41592 19.916 5.41665H6.08404C5.91721 5.41665 5.7641 5.48598 5.62471 5.62465C5.48532 5.76331 5.41599 5.91642 5.41671 6.08398V20.6375H12.2894C12.3118 20.7834 12.3381 20.9293 12.3685 21.0751C12.3995 21.221 12.4392 21.3648 12.4876 21.5063C12.536 21.6356 12.5035 21.7414 12.3901 21.8237C12.276 21.9068 12.1677 21.9104 12.0651 21.8346L11.7954 21.6504C11.7152 21.5977 11.6307 21.5713 11.5419 21.5713C11.453 21.5713 11.3682 21.5977 11.2873 21.6504L10.3372 22.308C10.257 22.3614 10.1725 22.3881 10.0837 22.3881C9.99487 22.3881 9.91001 22.3614 9.82912 22.308L8.87904 21.6504C8.79815 21.5977 8.71329 21.5713 8.62446 21.5713C8.53562 21.5713 8.45112 21.5977 8.37096 21.6504L7.42087 22.308C7.34071 22.3614 7.25621 22.3881 7.16737 22.3881C7.07854 22.3881 6.99368 22.3614 6.91279 22.308L5.96271 21.6504C5.88182 21.5977 5.79696 21.5713 5.70812 21.5713C5.61929 21.5713 5.53479 21.5977 5.45462 21.6504L4.33337 22.5203V6.08398ZM7.87587 17.6247H12.0727C12.2273 17.6247 12.3562 17.5731 12.4595 17.4698C12.5627 17.3665 12.6144 17.2376 12.6144 17.0831C12.6144 16.9285 12.5627 16.8 12.4595 16.6974C12.3562 16.5948 12.2273 16.5428 12.0727 16.5414H7.87587C7.72204 16.5414 7.59312 16.5934 7.48912 16.6974C7.38512 16.8014 7.33348 16.93 7.33421 17.0831C7.33493 17.2362 7.38657 17.3651 7.48912 17.4698C7.59168 17.5745 7.7206 17.6262 7.87587 17.6247ZM7.87587 13.5416H15.6802C15.834 13.5416 15.963 13.49 16.067 13.3867C16.171 13.2835 16.2226 13.1545 16.2219 13C16.2212 12.8454 16.1695 12.7165 16.067 12.6132C15.9644 12.51 15.8355 12.4583 15.6802 12.4583H7.87479C7.72096 12.4583 7.59204 12.51 7.48804 12.6132C7.38404 12.7165 7.33276 12.8454 7.33421 13C7.33565 13.1545 7.38729 13.2835 7.48912 13.3867C7.59096 13.49 7.71987 13.5416 7.87587 13.5416Z" fill="#174656"/>
</svg>
